<svg width="435" height="160" viewBox="0 0 435 160" fill="none" xmlns="http://www.w3.org/2000/svg">
<path d="M133.541 125V40.6364H186.433V51.5938H146.27V77.2983H183.674V88.2145H146.27V114.043H186.928V125H133.541ZM209.849 61.7273L223.813 86.3608L237.901 61.7273H251.372L231.64 93.3636L251.536 125H238.066L223.813 101.355L209.602 125H196.09L215.781 93.3636L196.338 61.7273H209.849Z" fill="#07C28A"/>
<path d="M293.705 97.6477H306.228L315.043 109.141L319.204 114.249L333.251 132.58H320.233L310.841 120.345L307.628 115.896L293.705 97.6477ZM335.969 82.8182C335.969 91.8258 334.322 99.5701 331.026 106.051C327.731 112.505 323.213 117.475 317.474 120.963C311.761 124.423 305.267 126.153 297.989 126.153C290.684 126.153 284.162 124.423 278.422 120.963C272.71 117.475 268.206 112.491 264.911 106.01C261.616 99.5289 259.968 91.7983 259.968 82.8182C259.968 73.8106 261.616 66.08 264.911 59.6264C268.206 53.1454 272.71 48.1747 278.422 44.7145C284.162 41.2268 290.684 39.483 297.989 39.483C305.267 39.483 311.761 41.2268 317.474 44.7145C323.213 48.1747 327.731 53.1454 331.026 59.6264C334.322 66.08 335.969 73.8106 335.969 82.8182ZM323.364 82.8182C323.364 75.9527 322.252 70.1719 320.027 65.4758C317.831 60.7524 314.81 57.1823 310.965 54.7656C307.148 52.3215 302.822 51.0994 297.989 51.0994C293.128 51.0994 288.789 52.3215 284.972 54.7656C281.155 57.1823 278.134 60.7524 275.91 65.4758C273.713 70.1719 272.614 75.9527 272.614 82.8182C272.614 89.6837 273.713 95.4782 275.91 100.202C278.134 104.898 281.155 108.468 284.972 110.912C288.789 113.329 293.128 114.537 297.989 114.537C302.822 114.537 307.148 113.329 310.965 110.912C314.81 108.468 317.831 104.898 320.027 100.202C322.252 95.4782 323.364 89.6837 323.364 82.8182ZM349.519 125V40.6364H362.248V114.043H400.475V125H349.519Z" fill="#1D2947"/>
<path d="M32.25 117.542V49.6235L95.75 28.0256V95.173L32.25 117.542Z" stroke="#07C28A" stroke-width="8.5"/>
<rect x="82.1818" y="51" width="15.0545" height="50.1818" transform="rotate(90 82.1818 51)" fill="white" stroke="#1D2947" stroke-width="8"/>
<rect x="82.1997" y="78.3818" width="15.0545" height="50.1818" transform="rotate(90 82.1997 78.3818)" fill="white" stroke="#1D2947" stroke-width="8"/>
<rect x="82.1997" y="105.982" width="15.0545" height="50.1818" transform="rotate(90 82.1997 105.982)" fill="white" stroke="#1D2947" stroke-width="8"/>
</svg>
