<?xml version="1.0" standalone="no"?>
<!DOCTYPE svg PUBLIC "-//W3C//DTD SVG 20010904//EN"
 "http://www.w3.org/TR/2001/REC-SVG-20010904/DTD/svg10.dtd">
<svg version="1.0" xmlns="http://www.w3.org/2000/svg"
 width="260.000000pt" height="260.000000pt" viewBox="0 0 260.000000 260.000000"
 preserveAspectRatio="xMidYMid meet">
<metadata>
Created by potrace 1.14, written by Peter Selinger 2001-2017
</metadata>
<g transform="translate(0.000000,260.000000) scale(0.100000,-0.100000)"
fill="#000000" stroke="none">
<path d="M0 1300 l0 -1300 1300 0 1300 0 0 1300 0 1300 -1300 0 -1300 0 0
-1300z m2020 257 l0 -762 -136 -48 c-89 -32 -139 -45 -143 -38 -5 7 -86 12
-226 13 l-220 3 118 42 c110 40 125 43 222 43 l104 0 3 37 c3 36 6 39 56 57
l52 19 0 578 0 578 -381 -130 -381 -129 -254 0 c-140 0 -254 3 -254 8 0 6
1400 488 1428 491 9 1 12 -158 12 -762z m-440 38 l0 -65 -420 0 -420 0 0 65 0
65 420 0 420 0 0 -65z m-830 -280 l0 -45 -85 0 -85 0 0 45 0 45 85 0 85 0 0
-45z m830 -270 l0 -65 -420 0 -420 0 0 65 0 65 420 0 420 0 0 -65z m-830 -280
l0 -45 -85 0 -85 0 0 45 0 45 85 0 85 0 0 -45z m830 -270 l0 -65 -420 0 -420
0 0 65 0 65 420 0 420 0 0 -65z"/>
</g>
</svg>
